<mxfile host="app.diagrams.net" modified="2022-04-06T15:45:57.652Z" agent="5.0 (Windows NT 10.0; Win64; x64) AppleWebKit/537.36 (KHTML, like Gecko) Chrome/99.0.4844.84 Safari/537.36" etag="wk2WOCnTBCMW62UaqRwZ" version="17.4.0" type="github">
  <diagram id="TUjIdH-0bkvIiG2cj7a6" name="第1頁">
    <mxGraphModel dx="593" dy="313" grid="1" gridSize="10" guides="1" tooltips="1" connect="1" arrows="1" fold="1" page="1" pageScale="1" pageWidth="827" pageHeight="1169" math="0" shadow="0">
      <root>
        <mxCell id="0" />
        <mxCell id="1" parent="0" />
        <mxCell id="hP9P10pXC6Dg-mEXAnI9-1" style="edgeStyle=orthogonalEdgeStyle;rounded=0;orthogonalLoop=1;jettySize=auto;html=1;entryX=0.5;entryY=0;entryDx=0;entryDy=0;fontSize=12;" edge="1" parent="1" source="hP9P10pXC6Dg-mEXAnI9-2" target="hP9P10pXC6Dg-mEXAnI9-4">
          <mxGeometry relative="1" as="geometry" />
        </mxCell>
        <mxCell id="hP9P10pXC6Dg-mEXAnI9-2" value="程式開始" style="shape=mxgraph.flowchart.terminator;strokeWidth=1;gradientDirection=north;fontStyle=0;html=1;fillColor=default;strokeColor=default;fontSize=12;" vertex="1" parent="1">
          <mxGeometry x="190" y="30" width="120" height="40" as="geometry" />
        </mxCell>
        <mxCell id="hP9P10pXC6Dg-mEXAnI9-3" value="" style="edgeStyle=orthogonalEdgeStyle;rounded=0;orthogonalLoop=1;jettySize=auto;html=1;fontSize=12;" edge="1" parent="1" source="hP9P10pXC6Dg-mEXAnI9-4" target="hP9P10pXC6Dg-mEXAnI9-5">
          <mxGeometry relative="1" as="geometry" />
        </mxCell>
        <mxCell id="hP9P10pXC6Dg-mEXAnI9-4" value="定義各項UUID&lt;br style=&quot;font-size: 12px&quot;&gt;全域變數:特徵值,buffer" style="rounded=0;whiteSpace=wrap;html=1;align=center;spacingTop=0;fontSize=12;" vertex="1" parent="1">
          <mxGeometry x="170" y="110" width="160" height="60" as="geometry" />
        </mxCell>
        <mxCell id="hP9P10pXC6Dg-mEXAnI9-7" value="" style="edgeStyle=orthogonalEdgeStyle;rounded=0;orthogonalLoop=1;jettySize=auto;html=1;entryX=0.5;entryY=0;entryDx=0;entryDy=0;exitX=0.5;exitY=1;exitDx=0;exitDy=0;" edge="1" parent="1" source="hP9P10pXC6Dg-mEXAnI9-17" target="hP9P10pXC6Dg-mEXAnI9-10">
          <mxGeometry relative="1" as="geometry">
            <mxPoint x="250" y="445" as="sourcePoint" />
            <mxPoint x="250" y="485" as="targetPoint" />
          </mxGeometry>
        </mxCell>
        <mxCell id="hP9P10pXC6Dg-mEXAnI9-9" value="" style="edgeStyle=orthogonalEdgeStyle;rounded=0;orthogonalLoop=1;jettySize=auto;html=1;" edge="1" parent="1" source="hP9P10pXC6Dg-mEXAnI9-5" target="hP9P10pXC6Dg-mEXAnI9-8">
          <mxGeometry relative="1" as="geometry" />
        </mxCell>
        <mxCell id="hP9P10pXC6Dg-mEXAnI9-18" value="" style="edgeStyle=orthogonalEdgeStyle;rounded=0;orthogonalLoop=1;jettySize=auto;html=1;" edge="1" parent="1" source="hP9P10pXC6Dg-mEXAnI9-5" target="hP9P10pXC6Dg-mEXAnI9-17">
          <mxGeometry relative="1" as="geometry" />
        </mxCell>
        <mxCell id="hP9P10pXC6Dg-mEXAnI9-5" value="&lt;span style=&quot;color: rgb(0 , 0 , 0) ; font-family: &amp;#34;helvetica&amp;#34; ; font-size: 12px ; font-style: normal ; font-weight: 400 ; letter-spacing: normal ; text-align: center ; text-indent: 0px ; text-transform: none ; word-spacing: 0px ; background-color: rgb(248 , 249 , 250) ; display: inline ; float: none&quot;&gt;初始化:&lt;/span&gt;&lt;br style=&quot;color: rgb(0 , 0 , 0) ; font-family: &amp;#34;helvetica&amp;#34; ; font-size: 12px ; font-style: normal ; font-weight: 400 ; letter-spacing: normal ; text-align: center ; text-indent: 0px ; text-transform: none ; word-spacing: 0px ; background-color: rgb(248 , 249 , 250)&quot;&gt;&lt;span style=&quot;color: rgb(0 , 0 , 0) ; font-family: &amp;#34;helvetica&amp;#34; ; font-size: 12px ; font-style: normal ; font-weight: 400 ; letter-spacing: normal ; text-align: center ; text-indent: 0px ; text-transform: none ; word-spacing: 0px ; background-color: rgb(248 , 249 , 250) ; display: inline ; float: none&quot;&gt;BLE client、多核心任務&lt;/span&gt;" style="rounded=0;whiteSpace=wrap;html=1;align=center;spacingTop=0;fontSize=12;" vertex="1" parent="1">
          <mxGeometry x="170" y="210" width="160" height="60" as="geometry" />
        </mxCell>
        <mxCell id="hP9P10pXC6Dg-mEXAnI9-8" value="&lt;span style=&quot;color: rgb(0 , 0 , 0) ; font-family: &amp;#34;helvetica&amp;#34; ; font-size: 12px ; font-style: normal ; font-weight: 400 ; letter-spacing: normal ; text-align: center ; text-indent: 0px ; text-transform: none ; word-spacing: 0px ; background-color: rgb(248 , 249 , 250) ; display: inline ; float: none&quot;&gt;初始化:&lt;/span&gt;&lt;br style=&quot;color: rgb(0 , 0 , 0) ; font-family: &amp;#34;helvetica&amp;#34; ; font-size: 12px ; font-style: normal ; font-weight: 400 ; letter-spacing: normal ; text-align: center ; text-indent: 0px ; text-transform: none ; word-spacing: 0px ; background-color: rgb(248 , 249 , 250)&quot;&gt;&lt;span style=&quot;color: rgb(0 , 0 , 0) ; font-family: &amp;#34;helvetica&amp;#34; ; font-size: 12px ; font-style: normal ; font-weight: 400 ; letter-spacing: normal ; text-align: center ; text-indent: 0px ; text-transform: none ; word-spacing: 0px ; background-color: rgb(248 , 249 , 250) ; display: inline ; float: none&quot;&gt;BLE client、多核心任務&lt;/span&gt;" style="rounded=0;whiteSpace=wrap;html=1;align=center;spacingTop=-11;fontSize=12;" vertex="1" parent="1">
          <mxGeometry x="720" y="230" width="200" height="80" as="geometry" />
        </mxCell>
        <mxCell id="hP9P10pXC6Dg-mEXAnI9-20" value="" style="edgeStyle=orthogonalEdgeStyle;rounded=0;orthogonalLoop=1;jettySize=auto;html=1;" edge="1" parent="1" source="hP9P10pXC6Dg-mEXAnI9-10" target="hP9P10pXC6Dg-mEXAnI9-19">
          <mxGeometry relative="1" as="geometry" />
        </mxCell>
        <mxCell id="hP9P10pXC6Dg-mEXAnI9-10" value="連到指定的Server" style="rhombus;whiteSpace=wrap;html=1;" vertex="1" parent="1">
          <mxGeometry x="170" y="505" width="160" height="100" as="geometry" />
        </mxCell>
        <mxCell id="hP9P10pXC6Dg-mEXAnI9-11" value="" style="endArrow=none;html=1;rounded=0;" edge="1" parent="1">
          <mxGeometry width="50" height="50" relative="1" as="geometry">
            <mxPoint x="330" y="555" as="sourcePoint" />
            <mxPoint x="250" y="330" as="targetPoint" />
            <Array as="points">
              <mxPoint x="380" y="555" />
              <mxPoint x="380" y="330" />
            </Array>
          </mxGeometry>
        </mxCell>
        <mxCell id="hP9P10pXC6Dg-mEXAnI9-17" value="搜尋BLE裝置" style="whiteSpace=wrap;html=1;rounded=0;spacingTop=0;align=center;" vertex="1" parent="1">
          <mxGeometry x="170" y="370" width="160" height="60" as="geometry" />
        </mxCell>
        <mxCell id="hP9P10pXC6Dg-mEXAnI9-23" value="" style="edgeStyle=orthogonalEdgeStyle;rounded=0;orthogonalLoop=1;jettySize=auto;html=1;" edge="1" parent="1" source="hP9P10pXC6Dg-mEXAnI9-19" target="hP9P10pXC6Dg-mEXAnI9-22">
          <mxGeometry relative="1" as="geometry" />
        </mxCell>
        <mxCell id="hP9P10pXC6Dg-mEXAnI9-19" value="連到指定的Service" style="rhombus;whiteSpace=wrap;html=1;" vertex="1" parent="1">
          <mxGeometry x="170" y="650" width="160" height="100" as="geometry" />
        </mxCell>
        <mxCell id="hP9P10pXC6Dg-mEXAnI9-21" value="" style="endArrow=none;html=1;rounded=0;" edge="1" parent="1">
          <mxGeometry width="50" height="50" relative="1" as="geometry">
            <mxPoint x="330" y="699" as="sourcePoint" />
            <mxPoint x="380" y="550" as="targetPoint" />
            <Array as="points">
              <mxPoint x="380" y="699" />
            </Array>
          </mxGeometry>
        </mxCell>
        <mxCell id="hP9P10pXC6Dg-mEXAnI9-26" value="" style="edgeStyle=orthogonalEdgeStyle;rounded=0;orthogonalLoop=1;jettySize=auto;html=1;" edge="1" parent="1" source="hP9P10pXC6Dg-mEXAnI9-22" target="hP9P10pXC6Dg-mEXAnI9-25">
          <mxGeometry relative="1" as="geometry" />
        </mxCell>
        <mxCell id="hP9P10pXC6Dg-mEXAnI9-22" value="連到指定的&lt;br&gt;Characteristic" style="rhombus;whiteSpace=wrap;html=1;" vertex="1" parent="1">
          <mxGeometry x="170" y="780" width="160" height="100" as="geometry" />
        </mxCell>
        <mxCell id="hP9P10pXC6Dg-mEXAnI9-24" value="" style="endArrow=none;html=1;rounded=0;" edge="1" parent="1">
          <mxGeometry width="50" height="50" relative="1" as="geometry">
            <mxPoint x="330" y="830" as="sourcePoint" />
            <mxPoint x="380" y="690" as="targetPoint" />
            <Array as="points">
              <mxPoint x="380" y="830" />
            </Array>
          </mxGeometry>
        </mxCell>
        <mxCell id="hP9P10pXC6Dg-mEXAnI9-30" value="" style="edgeStyle=orthogonalEdgeStyle;rounded=0;orthogonalLoop=1;jettySize=auto;html=1;" edge="1" parent="1" source="hP9P10pXC6Dg-mEXAnI9-25" target="hP9P10pXC6Dg-mEXAnI9-29">
          <mxGeometry relative="1" as="geometry" />
        </mxCell>
        <mxCell id="hP9P10pXC6Dg-mEXAnI9-25" value="接收各特徵值的data" style="whiteSpace=wrap;html=1;" vertex="1" parent="1">
          <mxGeometry x="170" y="910" width="160" height="60" as="geometry" />
        </mxCell>
        <mxCell id="hP9P10pXC6Dg-mEXAnI9-29" value="是否斷線" style="rhombus;whiteSpace=wrap;html=1;" vertex="1" parent="1">
          <mxGeometry x="170" y="1010" width="160" height="100" as="geometry" />
        </mxCell>
        <mxCell id="hP9P10pXC6Dg-mEXAnI9-31" value="" style="endArrow=none;html=1;rounded=0;" edge="1" parent="1">
          <mxGeometry width="50" height="50" relative="1" as="geometry">
            <mxPoint x="250" y="990" as="sourcePoint" />
            <mxPoint x="250" y="1110" as="targetPoint" />
            <Array as="points">
              <mxPoint x="120" y="990" />
              <mxPoint x="120" y="1060" />
              <mxPoint x="120" y="1140" />
              <mxPoint x="250" y="1140" />
            </Array>
          </mxGeometry>
        </mxCell>
        <mxCell id="hP9P10pXC6Dg-mEXAnI9-32" value="NO" style="text;html=1;align=center;verticalAlign=middle;resizable=0;points=[];autosize=1;strokeColor=none;fillColor=none;" vertex="1" parent="1">
          <mxGeometry x="250" y="1110" width="30" height="20" as="geometry" />
        </mxCell>
        <mxCell id="hP9P10pXC6Dg-mEXAnI9-33" value="" style="endArrow=none;html=1;rounded=0;" edge="1" parent="1">
          <mxGeometry width="50" height="50" relative="1" as="geometry">
            <mxPoint x="330" y="1060" as="sourcePoint" />
            <mxPoint x="380" y="820" as="targetPoint" />
            <Array as="points">
              <mxPoint x="380" y="1060" />
            </Array>
          </mxGeometry>
        </mxCell>
      </root>
    </mxGraphModel>
  </diagram>
</mxfile>
